<?xml version="1.0" standalone="no"?>
<!DOCTYPE svg PUBLIC "-//W3C//DTD SVG 20010904//EN"
 "http://www.w3.org/TR/2001/REC-SVG-20010904/DTD/svg10.dtd">
<svg version="1.0" xmlns="http://www.w3.org/2000/svg"
 width="260.000000pt" height="280.000000pt" viewBox="0 0 260.000000 280.000000"
 preserveAspectRatio="xMidYMid meet">

<g transform="translate(0.000000,280.000000) scale(0.100000,-0.100000)"
fill="#000000" stroke="none">
<path d="M1183 2496 c-92 -30 -167 -99 -211 -195 -37 -80 -37 -192 0 -273 51
-110 152 -189 265 -207 45 -7 41 -8 -52 -14 -223 -16 -411 -39 -451 -57 -38
-16 -84 -65 -84 -88 0 -5 -18 -12 -41 -16 -52 -8 -94 -49 -109 -104 -7 -29
-10 -185 -8 -499 3 -505 2 -497 67 -540 l34 -23 700 0 c693 0 700 0 734 21 69
43 68 33 71 542 2 316 -1 470 -8 499 -15 53 -61 96 -111 104 -22 4 -39 10 -39
15 0 14 -52 70 -79 84 -33 17 -208 42 -346 50 -55 3 -125 8 -155 12 l-55 6 63
13 c319 66 377 502 86 649 -48 24 -72 29 -143 32 -53 2 -102 -2 -128 -11z
m234 -67 c106 -52 167 -147 167 -264 0 -119 -57 -210 -162 -262 -142 -70 -315
-11 -390 131 -37 70 -38 189 -3 256 77 148 245 208 388 139z m258 -704 c125
-16 183 -35 193 -63 3 -9 -119 -12 -578 -12 -613 0 -616 0 -543 43 28 16 141
34 313 51 97 9 490 -3 615 -19z m339 -166 l26 -31 0 -458 c0 -322 -3 -467 -11
-484 -22 -47 -63 -57 -230 -54 l-152 3 -15 44 c-20 61 -85 124 -145 140 -41
12 -98 12 -147 0 -11 -3 -16 6 -18 34 -3 34 -6 37 -33 37 -27 0 -29 -2 -29
-40 0 -38 -1 -39 -26 -30 -34 13 -88 13 -135 -2 -71 -21 -124 -80 -153 -170
-5 -16 -21 -18 -156 -18 -164 0 -206 9 -228 51 -10 19 -12 127 -10 497 l3 474
24 19 c22 18 49 19 716 19 l693 0 26 -31z m-763 -911 l39 -22 49 24 c88 41
188 13 227 -62 30 -58 31 -58 -265 -58 -148 0 -276 3 -285 6 -18 7 -12 27 22
73 46 62 141 80 213 39z"/>
<path d="M920 1475 c-17 -20 2 -58 41 -86 32 -22 123 -42 177 -37 32 3 37 6
37 28 0 24 -3 25 -76 31 -84 7 -109 17 -133 54 -19 29 -29 31 -46 10z"/>
<path d="M1614 1456 c-34 -35 -67 -46 -144 -46 -56 0 -81 -20 -59 -46 19 -23
143 -12 199 16 47 24 78 74 59 96 -16 19 -20 18 -55 -20z"/>
<path d="M1267 1453 c-4 -3 -7 -33 -7 -65 0 -58 0 -58 30 -58 l30 0 0 65 c0
61 -1 65 -23 65 -13 0 -27 -3 -30 -7z"/>
<path d="M865 1319 c-14 -21 6 -56 42 -76 49 -27 127 -43 208 -43 62 0 65 1
65 24 0 22 -4 24 -77 31 -104 9 -146 21 -181 50 -32 27 -47 31 -57 14z"/>
<path d="M1667 1305 c-33 -29 -75 -41 -179 -50 -75 -6 -99 -20 -82 -47 8 -13
173 -4 226 12 52 15 100 57 96 84 -4 29 -28 30 -61 1z"/>
<path d="M1267 1283 c-4 -3 -7 -33 -7 -65 0 -58 0 -58 30 -58 l30 0 0 65 c0
61 -1 65 -23 65 -13 0 -27 -3 -30 -7z"/>
<path d="M809 1164 c-18 -22 2 -58 45 -78 53 -25 185 -47 258 -44 60 3 63 4
63 28 0 25 -1 25 -107 32 -111 7 -206 30 -214 53 -8 21 -31 25 -45 9z"/>
<path d="M1734 1157 c-44 -36 -88 -48 -207 -54 -113 -6 -142 -18 -117 -48 25
-30 235 -11 318 28 52 24 73 60 50 83 -13 14 -18 13 -44 -9z"/>
<path d="M1264 1116 c-3 -7 -4 -38 -2 -67 3 -51 5 -54 31 -57 l27 -3 0 70 c0
69 -1 71 -25 71 -14 0 -28 -6 -31 -14z"/>
<path d="M803 973 c-8 -20 26 -49 75 -63 52 -15 265 -35 286 -27 11 4 16 15
14 29 -3 21 -10 23 -134 34 -72 7 -148 19 -168 28 -49 20 -65 20 -73 -1z"/>
<path d="M1714 975 c-35 -16 -172 -35 -245 -35 -57 0 -82 -21 -56 -47 14 -15
29 -15 139 -5 169 15 250 45 234 87 -7 18 -30 18 -72 0z"/>
<path d="M1267 953 c-4 -3 -7 -33 -7 -65 0 -58 0 -58 30 -58 l30 0 0 65 c0 61
-1 65 -23 65 -13 0 -27 -3 -30 -7z"/>
</g>
</svg>
